<?xml version="1.0" standalone="yes"?>

<svg version="1.1" viewBox="0.0 0.0 305.71391076115486 305.71391076115486" fill="none" stroke="none" stroke-linecap="square" stroke-miterlimit="10" xmlns="http://www.w3.org/2000/svg" xmlns:xlink="http://www.w3.org/1999/xlink"><clipPath id="p.0"><path d="m0 0l305.7139 0l0 305.7139l-305.7139 0l0 -305.7139z" clip-rule="nonzero"></path></clipPath><g clip-path="url(#p.0)"><path fill="#000000" fill-opacity="0.0" d="m0 0l305.7139 0l0 305.7139l-305.7139 0z" fill-rule="evenodd"></path><path fill="#9900ff" d="m228.03412 174.30977l0 0c0 -15.046494 12.204651 -27.462662 27.259842 -27.732285l0 0c7.2297516 -0.12947083 14.163406 2.6166992 19.27562 7.6344147c5.112213 5.0177 7.9842224 11.895905 7.9842224 19.12149l0 0c0 15.046494 -12.204651 27.462662 -27.259842 27.732285l0 0c-15.055191 0.2696228 -27.259842 -11.709412 -27.259842 -26.755905z" fill-rule="evenodd"></path><path stroke="#9900ff" stroke-width="8.0" stroke-linejoin="round" stroke-linecap="butt" d="m228.03412 174.30977l0 0c0 -15.046494 12.204651 -27.462662 27.259842 -27.732285l0 0c7.2297516 -0.12947083 14.163406 2.6166992 19.27562 7.6344147c5.112213 5.0177 7.9842224 11.895905 7.9842224 19.12149l0 0c0 15.046494 -12.204651 27.462662 -27.259842 27.732285l0 0c-15.055191 0.2696228 -27.259842 -11.709412 -27.259842 -26.755905z" fill-rule="evenodd"></path><path fill="#9900ff" d="m23.160105 147.6798l0 0c0 -13.333115 10.808622 -24.332108 24.141733 -24.566933l0 0c6.4027863 -0.11277008 12.543327 2.3225784 17.070782 6.7702866c4.5274506 4.447708 7.0709534 10.543457 7.0709534 16.946243l0 0c0 13.333115 -10.808624 24.332108 -24.141735 24.56694l0 0c-13.333111 0.2348175 -24.141733 -10.383438 -24.141733 -23.716537z" fill-rule="evenodd"></path><path stroke="#9900ff" stroke-width="8.0" stroke-linejoin="round" stroke-linecap="butt" d="m23.160105 147.6798l0 0c0 -13.333115 10.808622 -24.332108 24.141733 -24.566933l0 0c6.4027863 -0.11277008 12.543327 2.3225784 17.070782 6.7702866c4.5274506 4.447708 7.0709534 10.543457 7.0709534 16.946243l0 0c0 13.333115 -10.808624 24.332108 -24.141735 24.56694l0 0c-13.333111 0.2348175 -24.141733 -10.383438 -24.141733 -23.716537z" fill-rule="evenodd"></path><path fill="#9900ff" d="m151.95801 49.877903l0 0c0 -11.837158 9.78627 -21.602287 21.858261 -21.811026l0 0c5.79718 -0.1002388 11.356918 2.0617485 15.456131 6.0103474c4.099228 3.9486008 6.4021454 9.360367 6.4021454 15.044773l0 0c0 11.837158 -9.786285 21.602283 -21.858276 21.811024l0 0c-12.071991 0.2087326 -21.858261 -9.21796 -21.858261 -21.055119z" fill-rule="evenodd"></path><path stroke="#9900ff" stroke-width="8.0" stroke-linejoin="round" stroke-linecap="butt" d="m151.95801 49.877903l0 0c0 -11.837158 9.78627 -21.602287 21.858261 -21.811026l0 0c5.79718 -0.1002388 11.356918 2.0617485 15.456131 6.0103474c4.099228 3.9486008 6.4021454 9.360367 6.4021454 15.044773l0 0c0 11.837158 -9.786285 21.602283 -21.858276 21.811024l0 0c-12.071991 0.2087326 -21.858261 -9.21796 -21.858261 -21.055119z" fill-rule="evenodd"></path><path fill="#9900ff" d="m121.91338 260.51428l0 0c0 -9.671509 8.129387 -17.652832 18.157478 -17.826767l0 0c4.815674 -0.08354187 9.434097 1.6813354 12.839279 4.906372c3.4051971 3.2250366 5.318207 7.646057 5.318207 12.290482l0 0c0 9.671509 -8.129379 17.652802 -18.157486 17.826752l0 0c-10.028091 0.1739502 -18.157478 -7.5253296 -18.157478 -17.196838z" fill-rule="evenodd"></path><path stroke="#9900ff" stroke-width="8.0" stroke-linejoin="round" stroke-linecap="butt" d="m121.91338 260.51428l0 0c0 -9.671509 8.129387 -17.652832 18.157478 -17.826767l0 0c4.815674 -0.08354187 9.434097 1.6813354 12.839279 4.906372c3.4051971 3.2250366 5.318207 7.646057 5.318207 12.290482l0 0c0 9.671509 -8.129379 17.652802 -18.157486 17.826752l0 0c-10.028091 0.1739502 -18.157478 -7.5253296 -18.157478 -17.196838z" fill-rule="evenodd"></path><path fill="#9900ff" d="m105.049866 163.86111l0 0c0 -7.671097 6.578247 -14.002563 14.692917 -14.141724l0 0c3.8968048 -0.066833496 7.6340027 1.3324585 10.389465 3.8900452c2.7554474 2.5575867 4.3034515 6.0639496 4.3034515 9.747742l0 0c0 7.671112 -6.578247 14.002579 -14.692917 14.141739l0 0c-8.11467 0.13916016 -14.692917 -5.96669 -14.692917 -13.637802z" fill-rule="evenodd"></path><path stroke="#9900ff" stroke-width="8.0" stroke-linejoin="round" stroke-linecap="butt" d="m105.049866 163.86111l0 0c0 -7.671097 6.578247 -14.002563 14.692917 -14.141724l0 0c3.8968048 -0.066833496 7.6340027 1.3324585 10.389465 3.8900452c2.7554474 2.5575867 4.3034515 6.0639496 4.3034515 9.747742l0 0c0 7.671112 -6.578247 14.002579 -14.692917 14.141739l0 0c-8.11467 0.13916016 -14.692917 -5.96669 -14.692917 -13.637802z" fill-rule="evenodd"></path><path fill="#9900ff" d="m184.48557 134.59392l0 0c0 -6.3490906 5.238617 -11.587715 11.70079 -11.700783l0 0c3.103241 -0.0542984 6.079376 1.1048203 8.273697 3.2223587c2.194336 2.1175385 3.4270935 5.020035 3.4270935 8.068985l0 0c0 6.3490906 -5.238632 11.587723 -11.70079 11.700775l0 0c-6.4621735 0.11306763 -11.70079 -4.94223 -11.70079 -11.291336z" fill-rule="evenodd"></path><path stroke="#9900ff" stroke-width="8.0" stroke-linejoin="round" stroke-linecap="butt" d="m184.48557 134.59392l0 0c0 -6.3490906 5.238617 -11.587715 11.70079 -11.700783l0 0c3.103241 -0.0542984 6.079376 1.1048203 8.273697 3.2223587c2.194336 2.1175385 3.4270935 5.020035 3.4270935 8.068985l0 0c0 6.3490906 -5.238632 11.587723 -11.70079 11.700775l0 0c-6.4621735 0.11306763 -11.70079 -4.94223 -11.70079 -11.291336z" fill-rule="evenodd"></path><path fill="#9900ff" d="m218.5328 252.21468l0 0c0 -5.244522 4.4277954 -9.573608 9.8897705 -9.669281l0 0c2.6229248 -0.045944214 5.1384277 0.9104614 6.9931183 2.6588287c1.8546906 1.7483826 2.896637 4.1454926 2.896637 6.6640015l0 0c0 5.2445374 -4.4277954 9.573608 -9.889755 9.669281l0 0c-5.461975 0.09567261 -9.8897705 -4.078308 -9.8897705 -9.32283z" fill-rule="evenodd"></path><path stroke="#9900ff" stroke-width="8.0" stroke-linejoin="round" stroke-linecap="butt" d="m218.5328 252.21468l0 0c0 -5.244522 4.4277954 -9.573608 9.8897705 -9.669281l0 0c2.6229248 -0.045944214 5.1384277 0.9104614 6.9931183 2.6588287c1.8546906 1.7483826 2.896637 4.1454926 2.896637 6.6640015l0 0c0 5.2445374 -4.4277954 9.573608 -9.889755 9.669281l0 0c-5.461975 0.09567261 -9.8897705 -4.078308 -9.8897705 -9.32283z" fill-rule="evenodd"></path><path fill="#9900ff" d="m74.78215 77.06555l0 0c0 -4.644409 3.7368393 -8.479958 8.346458 -8.566933l0 0c2.2136154 -0.041763306 4.3365707 0.8041687 5.9018326 2.351715c1.5652695 1.5475464 2.4446259 3.6699295 2.4446259 5.9002533l0 0c0 4.644409 -3.7368393 8.479958 -8.346458 8.566933l0 0c-4.609619 0.0869751 -8.346458 -3.6075592 -8.346458 -8.251968z" fill-rule="evenodd"></path><path stroke="#9900ff" stroke-width="8.0" stroke-linejoin="round" stroke-linecap="butt" d="m74.78215 77.06555l0 0c0 -4.644409 3.7368393 -8.479958 8.346458 -8.566933l0 0c2.2136154 -0.041763306 4.3365707 0.8041687 5.9018326 2.351715c1.5652695 1.5475464 2.4446259 3.6699295 2.4446259 5.9002533l0 0c0 4.644409 -3.7368393 8.479958 -8.346458 8.566933l0 0c-4.609619 0.0869751 -8.346458 -3.6075592 -8.346458 -8.251968z" fill-rule="evenodd"></path><path fill="#9900ff" d="m75.86877 235.47351l0 0c0 -3.8094635 3.2503433 -6.96109 7.259842 -7.0393677l0 0c1.9254303 -0.037597656 3.7720032 0.6530762 5.133484 1.920044c1.3614883 1.266983 2.126358 3.006485 2.126358 4.835861l0 0c0 3.8094635 -3.2503433 6.96109 -7.259842 7.0393677l0 0c-4.0094986 0.07827759 -7.259842 -2.9464417 -7.259842 -6.755905z" fill-rule="evenodd"></path><path stroke="#9900ff" stroke-width="8.0" stroke-linejoin="round" stroke-linecap="butt" d="m75.86877 235.47351l0 0c0 -3.8094635 3.2503433 -6.96109 7.259842 -7.0393677l0 0c1.9254303 -0.037597656 3.7720032 0.6530762 5.133484 1.920044c1.3614883 1.266983 2.126358 3.006485 2.126358 4.835861l0 0c0 3.8094635 -3.2503433 6.96109 -7.259842 7.0393677l0 0c-4.0094986 0.07827759 -7.259842 -2.9464417 -7.259842 -6.755905z" fill-rule="evenodd"></path><path fill="#9900ff" d="m238.31233 91.33265l0 0c0 -3.1136703 2.446579 -5.687149 5.464569 -5.7480316l0 0c1.449295 -0.02923584 2.8392334 0.536705 3.864029 1.5733185c1.0248108 1.0366211 1.6005402 2.4589996 1.6005402 3.954239l0 0c0 3.1136703 -2.4465637 5.687149 -5.464569 5.7480316l0 0c-3.01799 0.06088257 -5.464569 -2.4138947 -5.464569 -5.5275574z" fill-rule="evenodd"></path><path stroke="#9900ff" stroke-width="8.0" stroke-linejoin="round" stroke-linecap="butt" d="m238.31233 91.33265l0 0c0 -3.1136703 2.446579 -5.687149 5.464569 -5.7480316l0 0c1.449295 -0.02923584 2.8392334 0.536705 3.864029 1.5733185c1.0248108 1.0366211 1.6005402 2.4589996 1.6005402 3.954239l0 0c0 3.1136703 -2.4465637 5.687149 -5.464569 5.7480316l0 0c-3.01799 0.06088257 -5.464569 -2.4138947 -5.464569 -5.5275574z" fill-rule="evenodd"></path><path fill="#9900ff" d="m175.72966 201.81483l0 0c0 -2.3135223 1.9600677 -4.224243 4.377945 -4.2677307l0 0c1.1611176 -0.020874023 2.2746582 0.4004364 3.0956879 1.1712494c0.82102966 0.77082825 1.2822723 1.8280029 1.2822723 2.9389954l0 0c0 2.313507 -1.960083 4.224228 -4.37796 4.2677155l0 0c-2.4178772 0.04348755 -4.377945 -1.7967224 -4.377945 -4.1102295z" fill-rule="evenodd"></path><path stroke="#9900ff" stroke-width="8.0" stroke-linejoin="round" stroke-linecap="butt" d="m175.72966 201.81483l0 0c0 -2.3135223 1.9600677 -4.224243 4.377945 -4.2677307l0 0c1.1611176 -0.020874023 2.2746582 0.4004364 3.0956879 1.1712494c0.82102966 0.77082825 1.2822723 1.8280029 1.2822723 2.9389954l0 0c0 2.313507 -1.960083 4.224228 -4.37796 4.2677155l0 0c-2.4178772 0.04348755 -4.377945 -1.7967224 -4.377945 -4.1102295z" fill-rule="evenodd"></path><path fill="#9900ff" d="m142.46982 101.6627l0 0c0 -1.1045761 0.951828 -2.0211563 2.1259766 -2.0472488l0 0c0.56385803 -0.012527466 1.104599 0.18616486 1.5033112 0.5523834c0.3986969 0.36621094 0.62268066 0.8699417 0.62268066 1.4003754l0 0c0 1.1045685 -0.95184326 2.0211487 -2.1259918 2.0472412l0 0c-1.1741486 0.02609253 -2.1259766 -0.8481827 -2.1259766 -1.9527512z" fill-rule="evenodd"></path><path stroke="#9900ff" stroke-width="8.0" stroke-linejoin="round" stroke-linecap="butt" d="m142.46982 101.6627l0 0c0 -1.1045761 0.951828 -2.0211563 2.1259766 -2.0472488l0 0c0.56385803 -0.012527466 1.104599 0.18616486 1.5033112 0.5523834c0.3986969 0.36621094 0.62268066 0.8699417 0.62268066 1.4003754l0 0c0 1.1045685 -0.95184326 2.0211487 -2.1259918 2.0472412l0 0c-1.1741486 0.02609253 -2.1259766 -0.8481827 -2.1259766 -1.9527512z" fill-rule="evenodd"></path></g></svg>

